# xmcd
#
# Track frame offsets:
#	150
#	20272
#	31894
#	43030
#	58459
#	74212
#	86339
#	98721
#	122459
#	135906
#	151701
#	169690
#	186440
#	198110
#	218104
#	237248
#	250297
#	265078
#	279872
#	291760
#	304758
#
# Disc length: 4241 seconds
# Revision: 0
# Processed by: cddbd v1.5.2PL0 Copyright (c) Steve Scherf et al.
# Submitted via: dBpowerAMP V12.0
#
DISCID=22108f15
DTITLE=Various Artist - The World's Greatest Country Hits - 2007
DYEAR=1999
DGENRE=Pop
TTITLE0=Shania Twain - That Don't Impress Me Much
TTITLE1=Johnny Cash - A Thing Called Love
TTITLE2=Linda Ronstadt - It's So Easy
TTITLE3=Billy Ray Cyrus - Achy Breaky Heart
TTITLE4=John Denver - Thank God I'm A Country Boy (live)
TTITLE5=Tammy Wynette - Stand By Your Man
TTITLE6=Charlie Rich - The Most Beautiful Girl
TTITLE7=Dolly Parton - You Are
TTITLE8=Kenny Rogers - Ruby Don't Take Your Love To Town
TTITLE9=The Dirt Band - An Amercan Dream
TTITLE10=Trisha Yearwood - How Do I Live
TTITLE11=The Oak Ridge Boys - Elvira
TTITLE12=Freddy Fender - Before The Next Teardrop Falls
TTITLE13=John Michael Morgomery - I Swear
TTITLE14=Bobbie Gentry - Ode To Billie Joe
TTITLE15=Hank Williams - Jambalaya (On The Bayou)
TTITLE16=Dan Fogelberg - Longer
TTITLE17=Rosanne Cash - Seven Year Ache
TTITLE18=Lynn Anderson - You're My Man
TTITLE19=Marty Robbins - Devil Woman
TTITLE20=The Shadows - Apache
EXTD=
EXTT0=
EXTT1=
EXTT2=
EXTT3=
EXTT4=
EXTT5=
EXTT6=
EXTT7=
EXTT8=
EXTT9=
EXTT10=
EXTT11=
EXTT12=
EXTT13=
EXTT14=
EXTT15=
EXTT16=
EXTT17=
EXTT18=
EXTT19=
EXTT20=
PLAYORDER=
